<svg xmlns="http://www.w3.org/2000/svg" width="40" height="40" viewBox="0 0 134 213" version="1.1"><path d="M 25.500 6.105 C 28.250 7.842, 33.648 11.341, 37.495 13.881 C 41.342 16.422, 48.993 23, 54.496 28.500 C 60.383 34.384, 66.063 41.176, 68.294 45 C 70.380 48.575, 73.042 54.709, 74.209 58.631 C 76.201 65.328, 76.596 65.891, 80.692 67.881 C 83.091 69.046, 85.442 70, 85.917 70 C 86.392 70, 86.111 67.638, 85.292 64.750 C 84.473 61.862, 81.672 55, 79.068 49.500 C 76.464 44, 71.995 36.575, 69.137 33 C 66.279 29.425, 61.366 24.334, 58.220 21.686 C 55.074 19.038, 49.575 15.120, 46 12.978 C 42.425 10.837, 36.575 8.003, 33 6.681 C 29.425 5.358, 25.150 3.977, 23.500 3.612 C 20.961 3.049, 21.269 3.432, 25.500 6.105 M 49.128 43.101 C 47.143 43.875, 46.853 44.513, 47.352 47.009 C 47.680 48.649, 48.699 51.137, 49.616 52.537 C 50.533 53.937, 53.132 56.140, 55.392 57.433 C 57.651 58.726, 61.638 60.085, 64.250 60.453 C 68.743 61.086, 68.999 60.997, 68.984 58.811 C 68.975 57.540, 67.958 54.719, 66.725 52.542 C 65.492 50.364, 62.687 47.369, 60.492 45.886 C 58.296 44.402, 55.375 42.961, 54 42.682 C 52.625 42.404, 50.432 42.592, 49.128 43.101 M 38.521 66.095 C 38.977 66.868, 41.281 69.983, 43.640 73.018 C 46 76.053, 50.084 80.168, 52.715 82.162 C 55.347 84.156, 64.700 89.344, 73.500 93.691 C 82.300 98.038, 92.135 103.285, 95.355 105.352 C 98.575 107.418, 104.097 111.423, 107.627 114.252 C 111.157 117.081, 115.351 121.444, 116.947 123.947 C 118.584 126.515, 120.323 131.143, 120.935 134.562 C 121.667 138.651, 121.704 142.230, 121.048 145.562 C 120.514 148.278, 119.666 151.876, 119.163 153.558 C 118.661 155.241, 117.457 158.166, 116.488 160.058 C 115.519 161.951, 113.439 165.138, 111.866 167.140 C 110.293 169.142, 106.755 172.497, 104.003 174.596 C 101.251 176.694, 99 178.780, 99 179.231 C 99 179.682, 100.463 179.298, 102.250 178.377 C 104.037 177.457, 107.052 175.533, 108.948 174.102 C 110.845 172.671, 113.887 169.925, 115.708 168 C 117.530 166.075, 120.604 161.349, 122.540 157.498 C 124.545 153.509, 126.548 147.549, 127.194 143.650 C 128.052 138.472, 128.039 134.940, 127.140 129.152 C 126.486 124.943, 124.651 118.719, 123.061 115.320 C 121.472 111.922, 118.333 107.147, 116.088 104.711 C 113.842 102.274, 109.416 98.909, 106.252 97.232 C 103.088 95.555, 96.450 92.611, 91.500 90.691 C 86.550 88.771, 78.430 85.633, 73.455 83.718 C 68.481 81.803, 61.506 78.771, 57.955 76.981 C 54.405 75.190, 49.025 72.083, 46 70.076 C 42.975 68.069, 39.868 66.036, 39.095 65.559 C 38.054 64.915, 37.905 65.054, 38.521 66.095 M 77.698 112.750 C 77.364 119.213, 76.117 129, 74.925 134.500 C 73.734 140, 72.547 145.672, 72.288 147.104 C 71.860 149.462, 72.177 149.767, 75.634 150.328 C 77.734 150.669, 79.805 150.595, 80.235 150.165 C 80.666 149.734, 82.110 145.079, 83.444 139.821 C 84.778 134.562, 86.335 126.714, 86.904 122.380 C 87.473 118.046, 88.065 112.492, 88.220 110.039 C 88.488 105.773, 88.325 105.478, 84.500 103.305 C 82.300 102.055, 80.006 101.025, 79.403 101.016 C 78.701 101.006, 78.086 105.241, 77.698 112.750 M 65.066 167.199 C 63.843 170.114, 60.324 176.709, 57.248 181.853 C 54.171 186.997, 48.090 195.244, 43.735 200.178 C 39.380 205.113, 36.019 209.352, 36.266 209.599 C 36.513 209.846, 39.366 208.093, 42.607 205.703 C 45.848 203.313, 51.514 198.098, 55.198 194.114 C 58.882 190.129, 64.619 182.322, 67.948 176.763 C 71.277 171.205, 74 166.112, 74 165.446 C 74 164.779, 73.213 164.007, 72.250 163.730 C 71.287 163.453, 69.778 162.928, 68.895 162.562 C 67.662 162.052, 66.775 163.126, 65.066 167.199" stroke="none" fill="#146da9" fill-rule="evenodd"/><path d="M 9.832 6.750 C 7.906 9.846, 7.512 11.807, 7.569 18 C 7.622 23.774, 8.170 26.536, 9.948 30 C 11.218 32.475, 14.513 37.294, 17.270 40.708 C 20.026 44.123, 25.706 49.758, 29.891 53.230 C 34.076 56.702, 39.319 60.960, 41.542 62.691 C 43.764 64.422, 50.289 68.314, 56.042 71.339 C 61.794 74.365, 70.775 78.600, 76 80.750 C 81.225 82.900, 87.975 85.615, 91 86.783 C 94.025 87.951, 97.737 89.201, 99.250 89.562 C 101.256 90.040, 102 89.837, 102 88.811 C 102 88.038, 100.313 85.825, 98.250 83.892 C 96.188 81.960, 92.925 79.256, 91 77.884 C 89.075 76.512, 85.475 74.239, 83 72.832 C 80.525 71.426, 75.922 69.323, 72.772 68.160 C 69.622 66.996, 66.247 65.616, 65.272 65.092 C 64.297 64.568, 58.325 61.589, 52 58.473 C 45.675 55.357, 37.240 50.367, 33.256 47.384 C 29.272 44.402, 23.636 39.081, 20.732 35.561 C 17.828 32.040, 14.613 26.824, 13.586 23.970 C 12.096 19.825, 11.843 17.194, 12.329 10.891 C 12.664 6.551, 12.763 3, 12.550 3 C 12.337 3, 11.114 4.688, 9.832 6.750 M 20.001 3.715 C 20 3.833, 20.954 4.440, 22.121 5.065 C 23.363 5.729, 23.982 5.779, 23.614 5.185 C 23.270 4.627, 23.553 3.964, 24.244 3.712 C 24.935 3.460, 24.263 3.309, 22.751 3.377 C 21.239 3.444, 20.001 3.597, 20.001 3.715 M 58.500 22 C 59.495 23.100, 60.535 24, 60.810 24 C 61.085 24, 60.495 23.100, 59.500 22 C 58.505 20.900, 57.465 20, 57.190 20 C 56.915 20, 57.505 20.900, 58.500 22 M 62 108.374 C 59.525 109.055, 55.855 110.406, 53.845 111.375 C 51.834 112.345, 48.158 115.141, 45.674 117.590 C 43.190 120.038, 40.112 124.170, 38.834 126.771 C 37.094 130.312, 36.423 133.638, 36.165 140.013 C 35.891 146.750, 36.269 149.861, 37.976 154.930 C 39.163 158.452, 41.484 163.297, 43.135 165.696 C 44.785 168.095, 47.887 171.845, 50.028 174.029 C 52.169 176.213, 54.588 178, 55.404 178 C 56.219 178, 57.587 177, 58.443 175.777 C 59.299 174.555, 60 172.937, 60 172.181 C 60 171.425, 58.221 168.786, 56.047 166.316 C 53.873 163.846, 51.081 159.733, 49.843 157.177 C 48.199 153.779, 47.480 150.163, 47.173 143.733 C 46.855 137.082, 47.165 133.857, 48.444 130.507 C 49.496 127.754, 52.124 124.259, 55.386 121.278 C 58.895 118.072, 62.467 115.903, 66.156 114.740 C 69.192 113.783, 72.596 113, 73.721 113 C 74.980 113, 75.985 112.164, 76.335 110.826 C 76.648 109.631, 76.674 108.281, 76.393 107.826 C 76.112 107.372, 73.771 107.030, 71.191 107.067 C 68.611 107.105, 64.475 107.692, 62 108.374 M 88.158 111 C 88.158 112.375, 88.385 112.938, 88.662 112.250 C 88.940 111.563, 88.940 110.438, 88.662 109.750 C 88.385 109.063, 88.158 109.625, 88.158 111 M 89.667 114.667 C 89.300 115.033, 89 116.408, 89 117.722 C 89 119.035, 89.960 122.218, 91.134 124.795 C 92.308 127.372, 93.462 132.185, 93.698 135.490 C 94.042 140.304, 93.724 142.139, 92.103 144.710 C 90.989 146.475, 88.279 148.837, 86.079 149.960 C 83.879 151.082, 80.149 151.999, 77.790 151.998 C 75.430 151.998, 71.936 151.210, 70.025 150.248 C 67.677 149.067, 66.096 147.293, 65.150 144.779 C 63.919 141.504, 63.952 140.442, 65.432 135.919 C 66.356 133.092, 66.837 130.504, 66.500 130.166 C 66.162 129.829, 64.718 130.216, 63.290 131.027 C 61.863 131.837, 59.751 133.772, 58.597 135.326 C 57.021 137.451, 56.508 139.592, 56.533 143.947 C 56.560 148.708, 57.060 150.390, 59.335 153.372 C 60.857 155.369, 63.482 157.715, 65.167 158.586 C 67.419 159.751, 67.935 160.465, 67.115 161.285 C 66.502 161.898, 66.007 162.872, 66.015 163.450 C 66.024 164.027, 66.402 163.914, 66.856 163.199 C 67.530 162.137, 68.215 162.133, 70.591 163.178 C 72.191 163.883, 73.856 164.918, 74.292 165.480 C 74.740 166.058, 74.957 165.637, 74.792 164.510 C 74.539 162.788, 75.243 162.436, 80 161.899 C 83.025 161.558, 87.148 160.581, 89.162 159.727 C 91.177 158.874, 94.682 156.318, 96.952 154.048 C 99.222 151.778, 101.512 148.784, 102.040 147.395 C 102.568 146.006, 102.996 141.862, 102.990 138.185 C 102.983 133.138, 102.356 130.153, 100.430 126 C 99.027 122.975, 96.468 119.037, 94.743 117.250 C 93.019 115.463, 91.321 114, 90.970 114 C 90.620 114, 90.033 114.300, 89.667 114.667 M 112.500 119 C 113.495 120.100, 114.535 121, 114.810 121 C 115.085 121, 114.495 120.100, 113.500 119 C 112.505 117.900, 111.465 117, 111.190 117 C 110.915 117, 111.505 117.900, 112.500 119 M 121.195 140.500 C 121.215 142.150, 121.439 142.704, 121.693 141.731 C 121.947 140.758, 121.930 139.408, 121.656 138.731 C 121.382 138.054, 121.175 138.850, 121.195 140.500 M 114.924 168.750 L 112.500 171.500 115.250 169.076 C 116.763 167.742, 118 166.505, 118 166.326 C 118 166.147, 117.853 166, 117.674 166 C 117.495 166, 116.258 167.238, 114.924 168.750 M 106 172.143 L 100.500 177.222 105.747 173.020 C 108.633 170.710, 111.247 168.410, 111.556 167.909 C 111.865 167.409, 111.979 167.014, 111.809 167.032 C 111.639 167.049, 109.025 169.349, 106 172.143 M 98.200 178.200 C 97.540 178.860, 97 179.760, 97 180.200 C 97 180.640, 97.398 181, 97.883 181 C 98.369 181, 99.002 180.100, 99.290 179 C 99.577 177.900, 99.720 177, 99.606 177 C 99.493 177, 98.860 177.540, 98.200 178.200 M 68.119 180.123 C 67.619 181.430, 67.519 182.835, 67.898 183.243 C 68.277 183.652, 73.517 184.024, 79.543 184.069 C 85.570 184.114, 91.800 183.654, 93.389 183.048 C 94.977 182.441, 95.957 181.624, 95.566 181.232 C 95.174 180.841, 91.399 180.238, 87.177 179.893 C 82.955 179.547, 77.144 178.923, 74.265 178.505 C 69.347 177.792, 68.974 177.891, 68.119 180.123 M 50.946 198.750 L 47.500 202.500 51.250 199.054 C 53.313 197.158, 55 195.471, 55 195.304 C 55 195.137, 54.863 195, 54.696 195 C 54.529 195, 52.842 196.688, 50.946 198.750 M 39.946 203.750 L 36.500 207.500 40.250 204.054 C 42.313 202.158, 44 200.471, 44 200.304 C 44 200.137, 43.863 200, 43.696 200 C 43.529 200, 41.842 201.688, 39.946 203.750" stroke="none" fill="#e9852e" fill-rule="evenodd"/></svg>